<svg id="visual" viewBox="0 0 900 600" width="900" height="600" xmlns="http://www.w3.org/2000/svg" xmlns:xlink="http://www.w3.org/1999/xlink" version="1.1"><rect x="0" y="0" width="900" height="600" fill="#ffffff"></rect><g transform="translate(143.05282569283196 733.4617413455621)"><path d="M130.3 -196C260.6 -84.7 521.2 -169.3 546.9 -161C572.5 -152.7 363.3 -51.3 295.6 77.2C227.9 205.7 301.8 361.3 276.1 367.3C250.4 373.3 125.2 229.7 -0.4 230.2C-126 230.7 -252 375.5 -362.4 397C-472.9 418.6 -567.9 317 -671.4 176.2C-774.8 35.4 -886.7 -144.5 -809.5 -226.3C-732.4 -308 -466.1 -291.5 -299.7 -391.1C-133.2 -490.7 -66.6 -706.4 -33.3 -660.5C0 -614.7 0 -307.3 130.3 -196" fill="#ba6100"></path></g></svg>