<svg id="visual" viewBox="0 0 960 540" width="960" height="540" xmlns="http://www.w3.org/2000/svg" xmlns:xlink="http://www.w3.org/1999/xlink" version="1.1"><rect x="0" y="0" width="960" height="540" fill="#e5c699"></rect><g transform="translate(49.55179817081785 537.5967940095308)"><path d="M136.4 -226.9C272.8 -157.5 545.6 -315 546.8 -315C547.9 -315 277.5 -157.5 209.3 -39.3C141.2 78.8 275.4 157.7 341 273.3C406.6 388.9 403.5 541.3 335.3 600.5C267 659.8 133.5 625.9 32.1 570.3C-69.3 514.8 -138.7 437.5 -172.6 358.4C-206.5 279.3 -205 198.4 -297.8 138.4C-390.7 78.3 -577.8 39.2 -629.9 -30.1C-682.1 -99.3 -599.1 -198.7 -489.7 -230C-380.3 -261.3 -244.4 -224.6 -158.4 -323.1C-72.3 -421.6 -36.2 -655.3 -18.1 -624C0 -592.7 0 -296.3 136.4 -226.9" fill="#ba6d00"></path></g></svg>